# AST/ASF file generated using VICON BodyLanguage
# -----------------------------------------------
:version 1.10
:name VICON
:units
  mass 1.0
  length 0.45
  angle deg
:documentation
   .ast/.asf automatically generated from VICON data using
   VICON BodyBuilder and BodyLanguage model FoxedUp or BRILLIANT.MOD
:root
   order TX TY TZ RX RY RZ
   axis XYZ
   position 0 0 0  
   orientation 0 0 0 
:bonedata
  begin
     id 1 
     name lhipjoint
     direction 0.722297 -0.617336 0.311742 
     length 2.6635 
     axis 0 0 0  XYZ
  end
  begin
     id 2 
     name lfemur
     direction 0.34202 -0.939693 0  
     length 7.39349  
     axis 0 0 20  XYZ
    dof rx ry rz
    limits (-160.0 20.0)
           (-70.0 70.0)
           (-60.0 70.0)
  end
  begin
     id 3 
     name ltibia
     direction 0.34202 -0.939693 0   
     length 7.36294   
     axis 0 0 20   XYZ
    dof rx
    limits (-10.0 170.0)
  end
  begin
     id 4 
     name lfoot
     direction 0.104879 -0.288152 0.951824   
     length 2.16981   
     axis -90 7.62852e-016 20   XYZ
    dof rx rz
    limits (-45.0 90.0)
           (-70.0 20.0)
  end
  begin
     id 5 
     name ltoes
     direction 1.53586e-011 -4.21895e-011 1   
     length 1.08218   
     axis -90 7.62852e-016 20   XYZ
    dof rx
    limits (-90.0 20.0)
  end
  begin
     id 6 
     name rhipjoint
     direction -0.75102 -0.589393 0.297631   
     length 2.78977  
     axis 0 0 0  XYZ 
  end
  begin
     id 7 
     name rfemur
     direction -0.34202 -0.939693 0   
     length 7.46076   
     axis 0 0 -20   XYZ
    dof rx ry rz
    limits (-160.0 20.0)
           (-70.0 70.0)
           (-70.0 60.0)
  end
  begin
     id 8 
     name rtibia
     direction -0.34202 -0.939693 0   
     length 7.31726   
     axis 0 0 -20   XYZ
    dof rx
    limits (-10.0 170.0)
 end
 begin
     id 9 
     name rfoot
     direction -0.107991 -0.296704 0.948844   
     length 2.09388  
     axis -90 -7.62852e-016 -20   XYZ
    dof rx rz
    limits (-45.0 90.0)
           (-20.0 70.0)
  end
  begin
     id 10 
     name rtoes
     direction -1.53559e-011 -4.21911e-011 1   
     length 1.04433   
     axis -90 -7.62852e-016 -20   XYZ
    dof rx
    limits (-90.0 20.0)
  end
  begin
     id 11 
     name lowerback
     direction 0.0165164 0.98272 0.184358   
     length 1.71896   
     axis 0 0 0   XYZ
    dof rx ry rz
    limits (-20.0 45.0)
           (-30.0 30.0)
           (-30.0 30.0)
  end
  begin
     id 12 
     name upperback
     direction -0.00887249 0.992297 0.123566   
     length 1.71504   
     axis 0 0 0   XYZ
    dof rx ry rz
    limits (-20.0 45.0)
           (-30.0 30.0)
           (-30.0 30.0)
  end
  begin
     id 13 
     name thorax
     direction -0.0157026 0.998908 0.0440032   
     length 1.77022   
     axis 0 0 0   XYZ
    dof rx ry rz
    limits (-20.0 45.0)
           (-30.0 30.0)
           (-30.0 30.0)
  end
  begin
     id 14 
     name lowerneck
     direction -0.0238856 0.998137 0.0561411   
     length 1.89341   
     axis 0 0 0   XYZ
    dof rx ry rz
    limits (-20.0 45.0)
           (-30.0 30.0)
           (-30.0 30.0)
  end
  begin
     id 15 
     name upperneck
     direction 0.0276574 0.952253 -0.304056   
     length 1.86999   
     axis 0 0 0   XYZ
    dof rx ry rz
    limits (-20.0 45.0)
           (-30.0 30.0)
           (-30.0 30.0)
  end
  begin
     id 16
     name head
     direction 0.00800083 0.994258 -0.106712  
     length 1.91492  
     axis 0 0 0   XYZ
    dof rx ry rz
    limits (-20.0 45.0)
           (-30.0 30.0)
           (-30.0 30.0)
  end
  begin
     id 17 
     name lclavicle
     direction 0.97203 0.225407 0.06595  
     length 3.34889  
     axis 0 0 0   XYZ
    dof ry rz
    limits (-20.0 10.0)
           (0.0 20.0)
  end
  begin
     id 18 
     name lhumerus
     direction 1 -4.48973e-011 2.20267e-027   
     length 4.85645   
     axis 180 -30 -90   XYZ
    dof rx ry rz
    limits (-60.0 90.0)
           (-90.0 90.0)
           (-90.0 90.0)
  end
  begin
     id 19
     name lradius
     direction 1 -4.4897e-011 4.60472e-027   
     length 2.79874   
     axis 180 -30 -90   XYZ
    dof rx
    limits (-10.0 170.0)
  end
  begin
     id 20
     name lwrist
     direction 1 -4.48952e-011 1.14928e-026   
     length 1.39937   
     axis -6.29373e-015 90 90   XYZ
    dof ry
    limits (-180.0 0.0)
 end
  begin
     id 21 
     name lhand
     direction 1 -4.48967e-011 2.29886e-026   
     length 0.573398   
     axis -1.46689e-014 90 90   XYZ
    dof rx rz
    limits (-90.0 90.0)
           (-45.0 45.0)
  end
  begin
     id 22 
     name lfingers
     direction 1 -4.48955e-011 4.59726e-026   
     length 0.462289   
     axis -2.93383e-014 90 90   XYZ
    dof rx
    limits (0.0 90.0)
  end
  begin
     id 23
     name lthumb
     direction 0.707107 -6.34866e-011 0.707107   
     length 0.663757   
     axis -90 45 5.69224e-014   XYZ
    dof rx rz
    limits (-45.0 45.0)
           (-45.0 45.0)
  end
  begin
     id 24 
     name rclavicle
     direction -0.981571 0.157346 0.108443   
     length 3.35257  
     axis 0 0 0   XYZ 
    dof ry rz
    limits (-10.0 20.0)
           (-20.0 0.0)
  end
  begin
     id 25 
     name rhumerus
     direction -1 -4.48967e-011 8.58308e-029  
     length 4.67018   
     axis 180 30 90   XYZ
    dof rx ry rz
    limits (-90.0 60.0)
           (-90.0 90.0)
           (-90.0 90.0)
  end
  begin
     id 26 
     name rradius
     direction -1 -4.48958e-011 4.52548e-027   
     length 2.65534   
     axis 180 30 90   XYZ
    dof rx
    limits (-10.0 170.0)
  end
  begin
     id 27 
     name rwrist
     direction -1 -4.48977e-011 1.14952e-026   
     length 1.32767   
     axis -6.29373e-015 -90 -90   XYZ
    dof ry
    limits (-180.0 0.0)
  end
  begin
     id 28
     name rhand
     direction -1 -4.48924e-011 2.29804e-026   
     length 0.594069   
     axis -1.46689e-014 -90 -90   XYZ
    dof rx rz
    limits (-90.0 90.0)
           (-45.0 45.0)
  end
  begin
     id 29
     name rfingers
     direction -1 -4.48998e-011 4.59888e-026   
     length 0.478954   
     axis -2.93383e-014 -90 -90   XYZ
    dof rx
    limits (0.0 90.0)
  end
  begin
     id 30
     name rthumb
     direction -0.707107 -6.34933e-011 0.707107   
     length 0.687685   
     axis -90 -45 -5.69224e-014   XYZ
    dof rx rz
    limits (-45.0 45.0)
           (-45.0 45.0)
  end
:hierarchy
  begin
    root lhipjoint rhipjoint lowerback
    lhipjoint lfemur
    lfemur ltibia
    ltibia lfoot
    lfoot ltoes
    rhipjoint rfemur
    rfemur rtibia
    rtibia rfoot
    rfoot rtoes
    lowerback upperback
    upperback thorax
    thorax lowerneck lclavicle rclavicle
    lowerneck upperneck
    upperneck head
    lclavicle lhumerus
    lhumerus lradius
    lradius lwrist
    lwrist lhand lthumb
    lhand lfingers
    rclavicle rhumerus
    rhumerus rradius
    rradius rwrist
    rwrist rhand rthumb
    rhand rfingers
  end

#!OML:ASF E:\pregnant2\Project 1\Capture day 1\Session 1\pregnant2.ASF
:FULLY-SPECIFIED
:DEGREES
911
root 5.31765 24.7825 -23.3898 31.8654 -2.97911 3.32111
lowerback 0.447054 9.55592 5.89876
upperback -19.4846 12.4182 -15.8768
thorax -17.0946 3.48571 -24.3206
lowerneck -1.69696 -10.8947 -1.53442
upperneck 49.5513 -20.253 7.62181
head 22.1311 -7.36893 0.817433
rclavicle 3.4191e-014 -2.22639e-014
rhumerus -64.1446 -23.0671 -81.3162
rradius 49.1731
rwrist 6.28486
rhand -12.909 -16.0459
rfingers 7.12502
rthumb 13.1809 -45.6092
lclavicle 3.4191e-014 -2.22639e-014
lhumerus -59.1461 -30.3761 80.7174
lradius 32.0066
lwrist 1.61269
lhand -6.48929 27.0287
lfingers 7.12502
lthumb 19.3619 56.0847
rfemur -40.4135 4.44383 21.1918
rtibia 38.16
rfoot -28.6481 -22.6017
rtoes -0.675323
lfemur -54.3181 -10.6402 -25.0822
ltibia 32.4465
lfoot -5.35427 18.0023
ltoes -4.90063
912
root 5.3274 24.7733 -23.3345 31.7646 -2.86174 3.41025
lowerback 0.45225 9.49777 5.87994
upperback -19.4417 12.334 -15.8612
thorax -17.0899 3.44944 -24.283
lowerneck -1.78304 -10.8612 -1.53999
upperneck 49.5939 -20.1759 7.54282
head 22.1648 -7.34093 0.78573
rclavicle -8.26944e-014 8.26944e-014
rhumerus -64.0961 -22.8552 -81.7155
rradius 49.5502
rwrist 6.30425
rhand -12.4067 -16.0466
rfingers 7.12502
rthumb 13.665 -45.578
lclavicle -8.26944e-014 8.26944e-014
lhumerus -59.1315 -30.3815 80.8674
lradius 32.1553
lwrist 1.73227
lhand -6.55745 27.0675
lfingers 7.12502
lthumb 19.2964 56.1301
rfemur -40.4082 3.96205 21.2321
rtibia 38.8232
rfoot -28.5518 -22.2014
rtoes -1.7042
lfemur -54.0945 -10.7578 -25.2555
ltibia 32.6259
lfoot -5.5661 18.0182
ltoes -5.02738
913
root 5.33879 24.7653 -23.277 31.6236 -2.7627 3.47211
lowerback 0.488489 9.44604 5.89605
upperback -19.3974 12.2653 -15.833
thorax -17.0921 3.41473 -24.2582
lowerneck -1.86617 -10.8203 -1.54027
upperneck 49.6594 -20.0848 7.44942
head 22.2119 -7.30696 0.748968
rclavicle -4.77083e-015 6.36111e-015
rhumerus -64.0672 -22.6322 -82.0917
rradius 49.9228
rwrist 6.3531
rhand -11.757 -16.258
rfingers 7.12502
rthumb 14.2912 -45.7462
lclavicle -4.77083e-015 6.36111e-015
lhumerus -59.1297 -30.3911 81.0396
lradius 32.3131
lwrist 1.84249
lhand -6.63932 27.083
lfingers 7.12502
lthumb 19.2177 56.1535
rfemur -40.3661 3.48493 21.2731
rtibia 39.5226
rfoot -28.4005 -21.7273
rtoes -2.77063
lfemur -53.8087 -10.8437 -25.4281
ltibia 32.7949
lfoot -5.79958 18.0514
ltoes -5.17823
914
root 5.35115 24.7576 -23.2202 31.4944 -2.64843 3.52314
lowerback 0.514476 9.39156 5.93653
upperback -19.3564 12.1967 -15.8
thorax -17.0873 3.37789 -24.2391
lowerneck -1.94609 -10.7769 -1.5352
upperneck 49.7374 -19.9881 7.34711
head 22.2655 -7.27022 0.708183
rclavicle 2.60408e-014 -9.54166e-014
rhumerus -64.0349 -22.4144 -82.4377
rradius 50.2799
rwrist 6.42808
rhand -10.9871 -16.7111
rfingers 7.12502
rthumb 15.0329 -46.1454
lclavicle 2.60408e-014 -9.54166e-014
lhumerus -59.1203 -30.41 81.2357
lradius 32.4829
lwrist 1.94631
lhand -6.7287 27.1227
lfingers 7.12502
lthumb 19.1317 56.2018
rfemur -40.369 2.99002 21.3116
rtibia 40.2867
rfoot -28.2148 -21.1812
rtoes -3.81167
lfemur -53.5297 -10.895 -25.615
ltibia 32.957
lfoot -6.0461 18.0486
ltoes -5.3441
915
root 5.3637 24.75 -23.164 31.3844 -2.53235 3.57137
lowerback 0.534718 9.33279 5.97506
upperback -19.3271 12.122 -15.7632
thorax -17.098 3.33532 -24.2167
lowerneck -2.01226 -10.7331 -1.52562
upperneck 49.8301 -19.8879 7.23418
head 22.324 -7.23262 0.662975
rclavicle -8.46823e-014 2.8625e-014
rhumerus -64.0207 -22.1952 -82.7532
rradius 50.6206
rwrist 6.53222
rhand -10.2078 -17.2733
rfingers 7.12502
rthumb 15.7836 -46.6499
lclavicle -8.46823e-014 2.8625e-014
lhumerus -59.1042 -30.4287 81.4502
lradius 32.6525
lwrist 2.03376
lhand -6.82398 27.1916
lfingers 7.12502
lthumb 19.0401 56.2797
rfemur -40.4379 2.47144 21.3455
rtibia 41.1237
rfoot -27.9785 -20.5737
rtoes -4.84309
lfemur -53.2664 -10.8993 -25.8289
ltibia 33.1155
lfoot -6.3107 18.0021
ltoes -5.50533
916
root 5.3753 24.7419 -23.1116 31.3491 -2.38641 3.63828
lowerback 0.511293 9.25888 5.98963
upperback -19.3209 12.0215 -15.731
thorax -17.1256 3.27974 -24.1824
lowerneck -2.05762 -10.6869 -1.50805
upperneck 49.9309 -19.7822 7.11714
head 22.3798 -7.19276 0.617088
rclavicle -6.67916e-014 4.13472e-014
rhumerus -64.0175 -21.9845 -83.033
rradius 50.93
rwrist 6.66226
rhand -9.54498 -17.7456
rfingers 7.12502
rthumb 16.4218 -47.0705
lclavicle -6.67916e-014 4.13472e-014
lhumerus -59.0902 -30.4606 81.6864
lradius 32.8345
lwrist 2.12085
lhand -6.92151 27.2902
lfingers 7.12502
lthumb 18.9463 56.3874
rfemur -40.6633 1.9007 21.3773
rtibia 42.0612
rfoot -27.6781 -19.9255
rtoes -5.88166
lfemur -53.0919 -10.8727 -26.0721
ltibia 33.2687
lfoot -6.57884 17.8765
ltoes -5.65277
917
root 5.38671 24.7344 -23.0592 31.323 -2.2533 3.70176
lowerback 0.482208 9.18586 5.99125
upperback -19.3252 11.9202 -15.6963
thorax -17.1666 3.22338 -24.1383
lowerneck -2.08416 -10.6372 -1.47747
upperneck 50.045 -19.6699 6.99225
head 22.4364 -7.14921 0.567809
rclavicle -3.83654e-014 6.36111e-014
rhumerus -64.0259 -21.7874 -83.272
rradius 51.19
rwrist 6.82224
rhand -9.09349 -17.9192
rfingers 7.12502
rthumb 16.8564 -47.2076
lclavicle -3.83654e-014 6.36111e-014
lhumerus -59.0905 -30.5068 81.9467
lradius 33.0308
lwrist 2.21406
lhand -7.02192 27.4321
lfingers 7.12502
lthumb 18.8497 56.5388
rfemur -40.9651 1.27869 21.4264
rtibia 43.0942
rfoot -27.2952 -19.2225
rtoes -6.96198
lfemur -52.9198 -10.8161 -26.3248
ltibia 33.4141
lfoot -6.85516 17.7342
ltoes -5.78247
918
root 5.39824 24.7278 -23.0079 31.3144 -2.1208 3.75866
lowerback 0.441973 9.11184 5.995
upperback -19.3406 11.8179 -15.6598
thorax -17.215 3.16461 -24.0933
lowerneck -2.08601 -10.5871 -1.43436
upperneck 50.1696 -19.5553 6.86056
head 22.4903 -7.10421 0.515264
rclavicle -9.54166e-015 9.54166e-014
rhumerus -64.0469 -21.6085 -83.4683
rradius 51.3981
rwrist 7.00213
rhand -8.85189 -17.7773
rfingers 7.12502
rthumb 17.089 -47.0457
lclavicle -9.54166e-015 9.54166e-014
lhumerus -59.1005 -30.5657 82.2259
lradius 33.2399
lwrist 2.31794
lhand -7.11919 27.5791
lfingers 7.12502
lthumb 18.7562 56.6949
rfemur -41.3639 0.589548 21.5083
rtibia 44.2314
rfoot -26.8145 -18.4739
rtoes -8.04138
lfemur -52.7628 -10.7466 -26.5707
ltibia 33.5505
lfoot -7.12913 17.5804
ltoes -5.89066
919
root 5.41055 24.723 -22.9528 31.2529 -2.05978 3.78865
lowerback 0.417765 9.06286 5.99312
upperback -19.3461 11.75 -15.6157
thorax -17.2473 3.1286 -24.0317
lowerneck -2.08818 -10.5357 -1.38661
upperneck 50.3072 -19.4404 6.72652
head 22.5562 -7.05754 0.460596
rclavicle 3.06128e-014 -3.18055e-015
rhumerus -64.0672 -21.4494 -83.6174
rradius 51.5469
rwrist 7.1964
rhand -8.86949 -17.2677
rfingers 7.12502
rthumb 17.0721 -46.5376
lclavicle 3.06128e-014 -3.18055e-015
lhumerus -59.1087 -30.6339 82.5184
lradius 33.4586
lwrist 2.42929
lhand -7.21177 27.7102
lfingers 7.12502
lthumb 18.6671 56.8345
rfemur -41.7651 -0.11355 21.611
rtibia 45.4567
rfoot -26.2078 -17.6803
rtoes -9.15218
lfemur -52.5285 -10.6454 -26.805
ltibia 33.6796
lfoot -7.41669 17.4876
ltoes -5.97433
920
root 5.42331 24.7189 -22.8967 31.1755 -2.03321 3.80729
lowerback 0.394264 9.02577 5.98556
upperback -19.3453 11.6979 -15.5683
thorax -17.2659 3.10502 -23.9574
lowerneck -2.09396 -10.4844 -1.3327
upperneck 50.4522 -19.3282 6.59182
head 22.6308 -7.00995 0.403502
rclavicle 2.68359e-014 -2.22639e-014
rhumerus -64.0734 -21.3162 -83.7192
rradius 51.6367
rwrist 7.38678
rhand -8.89828 -16.8092
rfingers 7.12502
rthumb 17.0443 -46.0815
lclavicle 2.68359e-014 -2.22639e-014
lhumerus -59.1031 -30.71 82.8197
lradius 33.6823
lwrist 2.54784
lhand -7.30856 27.7998
lfingers 7.12502
lthumb 18.574 56.9331
rfemur -42.2277 -0.83872 21.7294
rtibia 46.7884
rfoot -25.4788 -16.8707
rtoes -10.2221
lfemur -52.2725 -10.5491 -27.0169
ltibia 33.8076
lfoot -7.70667 17.441
ltoes -5.99927
921
root 5.4376 24.7157 -22.8374 31.0452 -2.06859 3.79702
lowerback 0.390879 9.01232 5.99213
upperback -19.3286 11.6814 -15.5135
thorax -17.2585 3.10336 -23.8784
lowerneck -2.11236 -10.4335 -1.27795
upperneck 50.6034 -19.2201 6.45887
head 22.7186 -6.9623 0.344996
rclavicle 1.19271e-014 1.27222e-014
rhumerus -64.0625 -21.2054 -83.7775
rradius 51.6728
rwrist 7.55806
rhand -8.92301 -16.4429
rfingers 7.12502
rthumb 17.0205 -45.7172
lclavicle 1.19271e-014 1.27222e-014
lhumerus -59.0797 -30.7899 83.128
lradius 33.9123
lwrist 2.67237
lhand -7.41684 27.855
lfingers 7.12502
lthumb 18.4699 56.9981
rfemur -42.7049 -1.55373 21.8567
rtibia 48.2266
rfoot -24.6195 -16.0496
rtoes -11.2592
lfemur -51.95 -10.4554 -27.1964
ltibia 33.9375
lfoot -8.00122 17.484
ltoes -5.96839
922
root 5.45245 24.7114 -22.7799 30.9375 -2.10178 3.78349
lowerback 0.389186 8.99504 6.00624
upperback -19.3161 11.6609 -15.4569
thorax -17.2587 3.09697 -23.8044
lowerneck -2.1472 -10.3786 -1.22187
upperneck 50.7612 -19.1107 6.33065
head 22.8218 -6.91181 0.287293
rclavicle -1.13307e-014 -1.59028e-014
rhumerus -64.0374 -21.117 -83.7975
rradius 51.6502
rwrist 7.70647
rhand -8.93332 -16.1698
rfingers 7.12502
rthumb 17.0106 -45.445
lclavicle -1.13307e-014 -1.59028e-014
lhumerus -59.0554 -30.8805 83.4468
lradius 34.1631
lwrist 2.81233
lhand -7.53555 27.9179
lfingers 7.12502
lthumb 18.3557 57.0718
rfemur -43.3101 -2.2729 21.9895
rtibia 49.8039
rfoot -23.6377 -15.243
rtoes -12.1637
lfemur -51.6684 -10.3986 -27.3429
ltibia 34.076
lfoot -8.27801 17.5602
ltoes -5.88579
923
root 5.46769 24.7061 -22.722 30.8197 -2.1791 3.77796
lowerback 0.391485 8.98734 5.99574
upperback -19.2977 11.6498 -15.4038
thorax -17.2538 3.10022 -23.7181
lowerneck -2.18754 -10.3232 -1.16613
upperneck 50.9178 -19.0053 6.21145
head 22.9312 -6.86157 0.232782
rclavicle -1.27222e-014 -6.36111e-015
rhumerus -64.0009 -21.0507 -83.7799
rradius 51.5779
rwrist 7.82573
rhand -8.92612 -16.0185
rfingers 7.12502
rthumb 17.0176 -45.293
lclavicle -1.27222e-014 -6.36111e-015
lhumerus -59.0264 -30.9845 83.7785
lradius 34.4332
lwrist 2.97101
lhand -7.65894 27.9988
lfingers 7.12502
lthumb 18.237 57.1639
rfemur -44.0042 -2.95391 22.0838
rtibia 51.5131
rfoot -22.5293 -14.451
rtoes -12.8955
lfemur -51.3811 -10.3659 -27.4838
ltibia 34.2217
lfoot -8.5473 17.7011
ltoes -5.75686
924
root 5.4822 24.6983 -22.6681 30.7678 -2.25288 3.8096
lowerback 0.369402 8.96566 5.94252
upperback -19.2991 11.6116 -15.3631
thorax -17.2773 3.08959 -23.6247
lowerneck -2.21855 -10.2648 -1.10385
upperneck 51.073 -18.8988 6.09904
head 23.0382 -6.80978 0.181352
rclavicle -1.00983e-013 9.22361e-014
rhumerus -63.9703 -21.0037 -83.7338
rradius 51.4606
rwrist 7.91611
rhand -8.8941 -15.9726
rfingers 7.12502
rthumb 17.0484 -45.2445
lclavicle -1.00983e-013 9.22361e-014
lhumerus -59.0219 -31.1123 84.1291
lradius 34.7394
lwrist 3.16379
lhand -7.77904 28.1191
lfingers 7.12502
lthumb 18.1214 57.295
rfemur -44.8952 -3.60839 22.1325
rtibia 53.3589
rfoot -21.266 -13.6986
rtoes -13.4166
lfemur -51.1892 -10.3844 -27.6268
ltibia 34.3732
lfoot -8.75466 17.8539
ltoes -5.71917
925
root 5.49735 24.6897 -22.6132 30.6862 -2.37671 3.85258
lowerback 0.357413 8.95532 5.86885
upperback -19.289 11.5856 -15.3291
thorax -17.2899 3.09013 -23.5256
lowerneck -2.24518 -10.2054 -1.0342
upperneck 51.2186 -18.7954 5.99737
head 23.1377 -6.7575 0.133852
rclavicle -5.00937e-014 3.81667e-014
rhumerus -63.9356 -20.9822 -83.6588
rradius 51.3076
rwrist 7.97194
rhand -8.82953 -16.051
rfingers 7.12502
rthumb 17.1105 -45.3176
lclavicle -5.00937e-014 3.81667e-014
lhumerus -59.0341 -31.272 84.4986
lradius 35.0818
lwrist 3.39857
lhand -7.89623 28.2405
lfingers 7.12502
lthumb 18.0087 57.4268
rfemur -45.8448 -4.20254 22.1223
rtibia 55.3027
rfoot -19.8249 -12.9927
rtoes -13.7198
lfemur -50.9585 -10.4268 -27.7748
ltibia 34.5181
lfoot -8.93214 18.0732
ltoes -5.74011
